<?xml version="1.0" encoding="iso-8859-1"?>
<!-- Uploaded to: SVG Repo, www.svgrepo.com, Generator: SVG Repo Mixer Tools -->
<svg fill="#000000" height="800px" width="800px" version="1.1" id="Layer_1" xmlns="http://www.w3.org/2000/svg" xmlns:xlink="http://www.w3.org/1999/xlink" 
	 viewBox="0 0 512 512" xml:space="preserve">
<g>
	<g>
		<path d="M501.801,262.12H372.53c13.085-21.364,20.139-46.09,20.139-71.394c0-75.36-61.309-136.669-136.669-136.669
			s-136.669,61.309-136.669,136.669c0,25.304,7.055,50.03,20.139,71.394H10.199C4.566,262.12,0,266.686,0,272.319
			c0,5.633,4.566,10.199,10.199,10.199h491.602c5.632,0,10.199-4.566,10.199-10.199C512,266.686,507.433,262.12,501.801,262.12z
			 M347.764,262.12H164.236c-15.836-20.34-24.507-45.512-24.507-71.394c0-64.112,52.159-116.271,116.271-116.271
			c64.111,0,116.271,52.159,116.271,116.271C372.271,216.608,363.6,241.779,347.764,262.12z"/>
	</g>
</g>
<g>
	<g>
		<path d="M347.793,301.896H170.86c-5.633,0-10.199,4.566-10.199,10.199c0,5.633,4.566,10.199,10.199,10.199h176.933
			c5.632,0,10.199-4.566,10.199-10.199C357.992,306.463,353.425,301.896,347.793,301.896z"/>
	</g>
</g>
<g>
	<g>
		<path d="M302.916,335.554h-87.18c-5.633,0-10.199,4.566-10.199,10.199c0,5.633,4.566,10.199,10.199,10.199h87.18
			c5.632,0,10.199-4.566,10.199-10.199C313.116,340.12,308.548,335.554,302.916,335.554z"/>
	</g>
</g>
<g>
	<g>
		<path d="M272.319,368.191h-25.984c-5.633,0-10.199,4.566-10.199,10.199c0,5.633,4.566,10.199,10.199,10.199h25.984
			c5.632,0,10.199-4.566,10.199-10.199C282.518,372.757,277.951,368.191,272.319,368.191z"/>
	</g>
</g>
<g>
	<g>
		<path d="M472.223,301.896h-11.719c-5.632,0-10.199,4.566-10.199,10.199c0,5.633,4.567,10.199,10.199,10.199h11.719
			c5.632,0,10.199-4.566,10.199-10.199C482.422,306.463,477.855,301.896,472.223,301.896z"/>
	</g>
</g>
<g>
	<g>
		<path d="M423.982,301.896H390.63c-5.632,0-10.199,4.566-10.199,10.199c0,5.633,4.567,10.199,10.199,10.199h33.352
			c5.632,0,10.199-4.566,10.199-10.199C434.181,306.463,429.614,301.896,423.982,301.896z"/>
	</g>
</g>
<g>
	<g>
		<path d="M75.974,347.793H64.255c-5.633,0-10.199,4.566-10.199,10.199c0,5.633,4.566,10.199,10.199,10.199h11.719
			c5.633,0,10.199-4.566,10.199-10.199C86.173,352.359,81.607,347.793,75.974,347.793z"/>
	</g>
</g>
<g>
	<g>
		<path d="M145.849,347.793h-33.352c-5.633,0-10.199,4.566-10.199,10.199c0,5.633,4.566,10.199,10.199,10.199h33.352
			c5.633,0,10.199-4.566,10.199-10.199C156.048,352.359,151.482,347.793,145.849,347.793z"/>
	</g>
</g>
<g>
	<g>
		<path d="M425.307,385.53c-15.747,0-28.558,12.811-28.558,28.558c0,4.499-3.66,8.159-8.159,8.159s-8.159-3.66-8.159-8.159
			c0-15.747-12.811-28.558-28.558-28.558c-15.747,0-28.558,12.811-28.558,28.558c0,5.633,4.567,10.199,10.199,10.199
			c5.632,0,10.199-4.566,10.199-10.199c0-4.499,3.661-8.159,8.159-8.159c4.499,0,8.159,3.661,8.159,8.159
			c0,15.747,12.811,28.558,28.558,28.558c15.747,0,28.558-12.811,28.558-28.558c0-4.499,3.661-8.159,8.159-8.159
			c4.499,0,8.159,3.661,8.159,8.159c0,5.633,4.567,10.199,10.199,10.199s10.199-4.566,10.199-10.199
			C453.865,398.341,441.053,385.53,425.307,385.53z"/>
	</g>
</g>
<g>
	<g>
		<path d="M180.526,419.187c-5.633,0-10.199,4.566-10.199,10.199c0,4.499-3.661,8.159-8.159,8.159c-4.499,0-8.159-3.66-8.159-8.159
			c0-15.747-12.811-28.558-28.558-28.558c-15.747,0-28.558,12.811-28.558,28.558c0,4.499-3.661,8.159-8.159,8.159
			c-4.499,0-8.159-3.66-8.159-8.159c0-5.633-4.566-10.199-10.199-10.199c-5.633,0-10.199,4.566-10.199,10.199
			c0,15.747,12.811,28.558,28.558,28.558c15.747,0,28.558-12.811,28.558-28.558c0-4.499,3.661-8.159,8.159-8.159
			c4.499,0,8.159,3.66,8.159,8.159c0,15.747,12.811,28.558,28.558,28.558c15.747,0,28.558-12.811,28.558-28.558
			C190.725,423.753,186.159,419.187,180.526,419.187z"/>
	</g>
</g>
<g>
	<g>
		<path d="M212.162,115.585c-3.365-4.517-9.755-5.451-14.272-2.086c-24.573,18.307-39.243,47.508-39.243,78.114
			c0,5.633,4.566,10.199,10.199,10.199s10.199-4.566,10.199-10.199c0-24.556,11.31-47.064,31.031-61.756
			C214.593,126.492,215.528,120.102,212.162,115.585z"/>
	</g>
</g>
<g>
	<g>
		<path d="M256,94.26c-4.955,0-9.934,0.376-14.798,1.119c-5.568,0.85-9.393,6.053-8.544,11.622c0.77,5.047,5.117,8.662,10.071,8.662
			c0.511,0,1.03-0.039,1.551-0.118c3.849-0.587,7.792-0.885,11.721-0.885c5.632,0,10.199-4.566,10.199-10.199
			C266.2,98.827,261.632,94.26,256,94.26z"/>
	</g>
</g>
</svg>